700 0 1 0           
30 Autodesk Translation Framework 20 ASM 225.7.0.65535 NT 24 Fri Feb 21 11:03:05 2020 
1 9.999999999999999547e-07 1.000000000000000036e-10 
body $1 -1 $-1 $2 $-1 $3 #
rgb_color-st-attrib $-1 -1 $4 $-1 $0 0.627450980392156854 0.627450980392156854 0.627450980392156854 #
lump $-1 -1 $-1 $-1 $5 $0 #
transform $-1 -1 1 0 0 0 1 0 0 0 1 0 0 0 1 no_rotate no_reflect no_shear #
ATTRIB_CUSTOM-attrib $-1 -1 $-1 $1 $0 @20 Timestamp_attrib_def 1 1582279323833687 #
shell $-1 -1 $-1 $-1 $-1 $6 $-1 $2 #
face $7 -1 $-1 $8 $9 $5 $-1 $10 forward single #
DXID-attrib $-1 -1 $-1 $-1 $6 @10 ASM ENTITY @1 0 #
face $11 -1 $-1 $12 $13 $5 $-1 $14 forward single #
loop $-1 -1 $-1 $-1 $15 $6 #
sphere-surface $-1 -1 $-1 355 5.000000074505805969 -7.882583474838610175e-14 4.5 1 0 0 0 0 1 forward_v I I I I #
rgb_color-st-attrib $-1 -1 $16 $-1 $8 0.9098039215686274384 0.6784313725490196401 0.1372549019607843257 #
face $17 -1 $-1 $18 $19 $5 $-1 $20 forward single #
loop $-1 -1 $-1 $21 $22 $8 #
cone-surface $-1 -1 $-1 177.5 5.000000074505805969 -3.941291737419305087e-14 1 0 -2.220446049250312588e-16 -6.661338147750939243e-16 0 -3.000000000000000444 1 I I 0 1 3.000000000000000444 forward I I I I #
coedge $-1 -1 $-1 $15 $15 $22 $23 reversed $9 $-1 #
DXID-attrib $-1 -1 $24 $11 $8 @10 ASM ENTITY @1 1 #
rgb_color-st-attrib $-1 -1 $25 $-1 $12 0.3490196078431372362 0.3490196078431372362 0.3490196078431372362 #
face $26 -1 $-1 $27 $28 $5 $-1 $29 forward single #
loop $-1 -1 $-1 $30 $31 $12 #
cone-surface $-1 -1 $-1 0 5 -1.110223024625156343e-15 0 1 -2.220446049250312588e-16 7.5 0 0 1 I I 0 1 7.5 forward I I I I #
loop $-1 -1 $-1 $-1 $32 $8 #
coedge $-1 -1 $-1 $22 $22 $15 $23 forward $13 $-1 #
edge $-1 -1 $-1 $33 -3.141592653589793116 $33 3.141592653589793116 $22 $34 forward @7 unknown #
ATTRIB_CUSTOM-attrib $-1 -1 $-1 $16 $8 @27 NEUTRON_Material_attrib_def 1 @36 577481a2-55a1-421d-b9d6-0ff0a9826947 #
DXID-attrib $-1 -1 $35 $17 $12 @10 ASM ENTITY @1 2 #
DXID-attrib $-1 -1 $-1 $-1 $18 @10 ASM ENTITY @1 3 #
face $36 -1 $-1 $-1 $37 $5 $-1 $38 forward single #
loop $-1 -1 $-1 $-1 $39 $18 #
plane-surface $-1 -1 $-1 0 0 0 0 -1 2.220446049250312588e-16 -10 0 0 forward_v I I I I #
loop $-1 -1 $-1 $40 $41 $12 #
coedge $-1 -1 $-1 $31 $31 $32 $42 forward $19 $-1 #
coedge $-1 -1 $-1 $32 $32 $31 $42 reversed $21 $-1 #
vertex $-1 -1 $-1 $23 $43 #
ellipse-curve $-1 -1 $-1 351.6458980337503135 5.000000074505805969 -7.80810745024119068e-14 -1 0 2.220446049250312588e-16 0 0 -3.000000000000000444 1 I I #
ATTRIB_CUSTOM-attrib $-1 -1 $-1 $25 $12 @27 NEUTRON_Material_attrib_def 1 @36 53868aeb-d5f2-492d-811d-1ecd47676f35 #
rgb_color-st-attrib $-1 -1 $44 $-1 $27 0.3490196078431372362 0.3490196078431372362 0.3490196078431372362 #
loop $-1 -1 $-1 $-1 $45 $27 #
plane-surface $-1 -1 $-1 0 10 -2.220446049250312686e-15 0 1 -2.220446049250312588e-16 10 0 0 forward_v I I I I #
coedge $-1 -1 $-1 $39 $39 $41 $46 forward $28 $-1 #
loop $-1 -1 $-1 $-1 $47 $12 #
coedge $-1 -1 $-1 $41 $41 $39 $46 reversed $30 $-1 #
edge $-1 -1 $-1 $48 0 $48 1.83055040532464508 $31 $49 forward @7 unknown #
point $-1 -1 $-1 351.6458980337503135 5.000000074505805969 2.999999999999922284 #
DXID-attrib $-1 -1 $50 $36 $27 @10 ASM ENTITY @1 4 #
coedge $-1 -1 $-1 $45 $45 $47 $51 forward $37 $-1 #
edge $-1 -1 $-1 $52 0 $52 6.283185307179586232 $39 $53 forward @7 unknown #
coedge $-1 -1 $-1 $47 $47 $45 $51 reversed $40 $-1 #
vertex $-1 -1 $-1 $42 $54 #
intcurve-curve $-1 -1 $-1 forward { surfintcur full nubs 3 periodic 17 
	0 3 0.1144672995757953921 2 0.2289345991515907841 2 0.3432861002413760132 2 0.45763760133116127 2 
	0.5719891024209464714 2 0.6863406035107317837 2 0.8008079030865271619 2 0.9152752026623225401 2 1.029742502238117918 2 
	1.144209801813913518 2 1.258561302903698831 2 1.372912803993483921 2 1.487264305083269234 2 1.601615806173054546 2 
	1.716083105748849924 2 1.83055040532464508 3 
	6.873863542433760188 5.000000074505805081 -3.000000000000002665 
	6.873863542433760188 4.61844240925315308 -3.000000000000002665 
	6.908993750678177115 4.214839177338016718 -2.922867301080980695 
	7.031110273018988721 3.477239787691583039 -2.615498866710340042 
	7.115862152692691289 3.142801064885078155 -2.385441677498558732 
	7.271553626355547806 2.614825589914798076 -1.857466202528279098 
	7.353241148387458459 2.384565765412820948 -1.522926346027673183 
	7.468155132811121533 2.077042223023016554 -0.784932461541142934 
	7.5 2.000000074505805081 -0.3811716702992852257 
	7.5 2.000000074505805525 0.3811716702992830053 
	7.468155132811121533 2.077042223023016554 0.7849324615411410466 
	7.353241148387458459 2.384565765412821392 1.522926346027671851 
	7.271553626355546918 2.61482558991479852 1.857466202528277321 
	7.115862152692688625 3.142801064885078155 2.385441677498556956 
	7.031110273018990497 3.477239787691583039 2.615498866710337378 
	6.908993750678178003 4.214839177338018494 2.922867301080978475 
	6.873863542433759299 4.618442409253155745 2.999999999999998224 
	6.873863542433758411 5.38155773975845797 2.999999999999998224 
	6.908993750678178003 5.785160971673594332 2.922867301080978031 
	7.031110273018990497 6.522760361320029787 2.615498866710336934 
	7.115862152692691289 6.857199084126534672 2.385441677498554292 
	7.271553626355549582 7.385174559096814306 1.857466202528273991 
	7.353241148387458459 7.615434383598791435 1.522926346027669631 
	7.468155132811121533 7.922957925988596273 0.7849324615411389372 
	7.5 8.000000074505805969 0.3811716702992803407 
	7.5 8.000000074505805969 -0.3811716702992875572 
	7.468155132811121533 7.922957925988594496 -0.7849324615411455985 
	7.353241148387458459 7.61543438359878877 -1.522926346027675848 
	7.271553626355546918 7.38517455909681253 -1.857466202528281318 
	7.115862152692688625 6.857199084126532895 -2.385441677498560509 
	7.031110273018988721 6.522760361320024458 -2.615498866710343595 
	6.908993750678177115 5.785160971673589003 -2.922867301080982916 
	6.873863542433760188 5.381557739758456194 -3.000000000000002665 
	6.873863542433760188 5.000000074505805081 -3.000000000000002665 
	0.002017332514827295531 
	
	cone 177.5 5.000000074505805969 -3.941291737419305087e-14 1 0 -2.220446049250312588e-16 -6.661338147750939243e-16 0 -3.000000000000000444 1 I I 0 1 3.000000000000000444 forward I I I I 
	cone 0 5 -1.110223024625156343e-15 0 1 -2.220446049250312588e-16 7.5 0 0 1 I I 0 1 7.5 forward I I I I 
	nullbs 
	nullbs 
	I I 
	0 
	0 
	0 
	} I I #
ATTRIB_CUSTOM-attrib $-1 -1 $-1 $44 $27 @27 NEUTRON_Material_attrib_def 1 @36 6b38698d-8e31-404c-b55e-6362735b812f #
edge $-1 -1 $-1 $55 0 $55 6.283185307179586232 $45 $56 forward @7 unknown #
vertex $-1 -1 $-1 $46 $57 #
ellipse-curve $-1 -1 $-1 0 0 0 0 -1 2.220446049250312588e-16 7.5 0 0 1 I I #
point $-1 -1 $-1 6.873863542433760188 5.000000074505805081 -3.00000000000000222 #
vertex $-1 -1 $-1 $51 $58 #
ellipse-curve $-1 -1 $-1 0 10 -2.220446049250312686e-15 0 1 -2.220446049250312588e-16 7.5 0 0 1 I I #
point $-1 -1 $-1 7.5 0 0 #
point $-1 -1 $-1 7.5 10 -2.220446049250312686e-15 #
End-of-ACIS-data 